<svg width="16" height="16" viewBox="0 0 16 16" fill="none" xmlns="http://www.w3.org/2000/svg">
<path d="M14.7912 7.00499H3.62124L8.50124 2.12499C8.89124 1.73499 8.89124 1.09499 8.50124 0.704992C8.31441 0.517739 8.06076 0.412506 7.79624 0.412506C7.53172 0.412506 7.27807 0.517739 7.09124 0.704992L0.50124 7.29499C0.11124 7.68499 0.11124 8.31499 0.50124 8.70499L7.09124 15.295C7.48124 15.685 8.11124 15.685 8.50124 15.295C8.89124 14.905 8.89124 14.275 8.50124 13.885L3.62124 9.00499H14.7912C15.3412 9.00499 15.7912 8.55499 15.7912 8.00499C15.7912 7.45499 15.3412 7.00499 14.7912 7.00499Z" fill="#ECEDF1"/>
</svg>

