<svg width="24" height="25" viewBox="0 0 24 25" fill="none" xmlns="http://www.w3.org/2000/svg">
<path d="M5.05499 3.74569C4.98913 3.67144 4.90918 3.61101 4.81979 3.56789C4.7304 3.52477 4.63334 3.49982 4.53423 3.49449C4.43513 3.48916 4.33595 3.50355 4.24245 3.53683C4.14895 3.57011 4.06298 3.62162 3.98953 3.68837C3.91608 3.75512 3.85661 3.83578 3.81457 3.92568C3.77252 4.01559 3.74874 4.11294 3.7446 4.2121C3.74045 4.31126 3.75603 4.41026 3.79043 4.50336C3.82483 4.59645 3.87737 4.68179 3.94499 4.75444L5.74874 6.73913C2.34374 8.82881 0.879366 12.0501 0.814679 12.1963C0.772035 12.2922 0.75 12.396 0.75 12.501C0.75 12.606 0.772035 12.7098 0.814679 12.8057C0.847491 12.8798 1.64155 14.6404 3.40687 16.4057C5.75905 18.7569 8.72999 20.0001 12 20.0001C13.6806 20.0096 15.3442 19.6636 16.8816 18.9848L18.9441 21.2544C19.0099 21.3287 19.0899 21.3891 19.1793 21.4322C19.2686 21.4754 19.3657 21.5003 19.4648 21.5056C19.5639 21.511 19.6631 21.4966 19.7566 21.4633C19.8501 21.43 19.9361 21.3785 20.0095 21.3118C20.083 21.245 20.1424 21.1643 20.1845 21.0744C20.2265 20.9845 20.2503 20.8872 20.2544 20.788C20.2586 20.6889 20.243 20.5899 20.2086 20.4968C20.1742 20.4037 20.1217 20.3183 20.0541 20.2457L5.05499 3.74569ZM9.49218 10.8557L13.3987 15.1541C12.8105 15.4636 12.136 15.569 11.4814 15.4536C10.8268 15.3382 10.229 15.0087 9.78189 14.5168C9.33481 14.0249 9.06377 13.3984 9.01134 12.7358C8.9589 12.0731 9.12803 11.4118 9.49218 10.8557ZM12 18.5001C9.11437 18.5001 6.59343 17.451 4.50655 15.3829C3.64997 14.5316 2.92145 13.5606 2.34374 12.5001C2.78343 11.676 4.18687 9.36975 6.7828 7.87069L8.4703 9.72225C7.81699 10.559 7.48052 11.5997 7.52036 12.6605C7.56021 13.7214 7.97379 14.7339 8.68802 15.5193C9.40225 16.3047 10.3711 16.8122 11.4234 16.9523C12.4757 17.0924 13.5436 16.8559 14.4384 16.2847L15.8194 17.8035C14.6006 18.2711 13.3053 18.5073 12 18.5001ZM12.5625 9.5535C12.3671 9.5162 12.1944 9.4028 12.0826 9.23824C11.9708 9.07367 11.9289 8.87143 11.9662 8.676C12.0035 8.48057 12.1169 8.30796 12.2815 8.19614C12.4461 8.08432 12.6483 8.04245 12.8437 8.07975C13.7996 8.26506 14.67 8.75442 15.325 9.47483C15.98 10.1952 16.3846 11.1081 16.4784 12.0773C16.4969 12.2753 16.436 12.4726 16.3091 12.6257C16.1822 12.7788 15.9996 12.8753 15.8016 12.8938C15.7781 12.8952 15.7547 12.8952 15.7312 12.8938C15.5438 12.8946 15.3628 12.8252 15.224 12.6992C15.0852 12.5732 14.9986 12.3998 14.9812 12.2132C14.9181 11.5686 14.6486 10.9615 14.2128 10.4823C13.7771 10.0031 13.1982 9.67738 12.5625 9.5535ZM23.1825 12.8057C23.1431 12.8938 22.1934 14.9966 20.055 16.9119C19.9819 16.9795 19.8961 17.0318 19.8027 17.0658C19.7092 17.0999 19.6099 17.115 19.5105 17.1103C19.4111 17.1056 19.3136 17.0812 19.2238 17.0384C19.1339 16.9957 19.0535 16.9355 18.9871 16.8614C18.9208 16.7872 18.8698 16.7006 18.8373 16.6066C18.8047 16.5126 18.7912 16.413 18.7975 16.3138C18.8037 16.2145 18.8297 16.1174 18.8739 16.0282C18.918 15.9391 18.9795 15.8596 19.0547 15.7944C20.1038 14.8519 20.9851 13.7379 21.6609 12.5001C21.0819 11.4386 20.3518 10.4669 19.4934 9.61538C17.4066 7.54913 14.8856 6.50006 12 6.50006C11.392 6.49932 10.7849 6.54855 10.185 6.64725C10.0874 6.6645 9.98741 6.66226 9.89073 6.64064C9.79404 6.61902 9.70259 6.57845 9.62167 6.52129C9.54074 6.46413 9.47195 6.3915 9.41925 6.3076C9.36656 6.22369 9.33101 6.13018 9.31466 6.03247C9.29832 5.93475 9.30149 5.83476 9.32401 5.73827C9.34652 5.64179 9.38793 5.55072 9.44584 5.47033C9.50375 5.38994 9.57702 5.32182 9.6614 5.26991C9.74579 5.218 9.83963 5.18332 9.93749 5.16788C10.6192 5.05531 11.309 4.99919 12 5.00006C15.27 5.00006 18.2409 6.24319 20.5931 8.59538C22.3584 10.3607 23.1525 12.1223 23.1853 12.1963C23.2279 12.2922 23.25 12.396 23.25 12.501C23.25 12.606 23.2279 12.7098 23.1853 12.8057H23.1825Z" fill="#F4F46C"/>
</svg>
